<svg xmlns="http://www.w3.org/2000/svg" viewBox="0 0 512 512" role="img" aria-labelledby="title">
  <title>Meu Devocional 365</title>
  <rect width="512" height="512" rx="96" fill="#171914"/>
  <path d="M154 150c0-22 18-40 40-40h178c22 0 40 18 40 40v252c0 8-8 13-15 9l-40-24a31 31 0 0 0-32 0l-39 24a31 31 0 0 1-32 0l-39-24a31 31 0 0 0-32 0l-40 24c-7 4-15-1-15-9V176c0-14 11-26 26-26z" fill="#f7f0df"/>
  <path d="M200 174h166M200 226h128M200 278h148" stroke="#171914" stroke-width="24" stroke-linecap="round"/>
  <path d="M146 154c-24 0-42 19-42 42v236" stroke="#cfa85a" stroke-width="28" stroke-linecap="round"/>
  <path d="M330 118v110l-38-24-38 24V118" fill="#cfa85a"/>
</svg>
